<svg width="336" height="85" viewBox="0 0 336 85" fill="none" xmlns="http://www.w3.org/2000/svg">
<rect width="336" height="85" rx="41" fill="white"/>
<circle cx="292.5" cy="41.5" r="33.5" fill="url(#paint0_linear)"/>
<path d="M304 45V50.3333C304 51.0406 303.719 51.7189 303.219 52.219C302.719 52.7191 302.041 53 301.333 53H282.667C281.959 53 281.281 52.7191 280.781 52.219C280.281 51.7189 280 51.0406 280 50.3333V45" stroke="white" stroke-width="2" stroke-linecap="round" stroke-linejoin="round"/>
<path d="M285.333 38.3333L292 45L298.667 38.3333" stroke="white" stroke-width="2" stroke-linecap="round" stroke-linejoin="round"/>
<path d="M292 45V29" stroke="white" stroke-width="2" stroke-linecap="round" stroke-linejoin="round"/>
<path d="M36.3931 52V31.3828H42.2129C44.0065 31.3828 45.5924 31.7793 46.9707 32.5723C48.349 33.3652 49.411 34.4933 50.1567 35.9565C50.9119 37.4198 51.2943 39.1001 51.3037 40.9976V42.3145C51.3037 44.2591 50.9261 45.9631 50.1709 47.4263C49.4251 48.8895 48.3537 50.0129 46.9565 50.7964C45.5688 51.5799 43.9499 51.9811 42.0996 52H36.3931ZM39.1118 33.6201V49.7769H41.9722C44.0679 49.7769 45.6963 49.1255 46.8574 47.8228C48.028 46.52 48.6133 44.665 48.6133 42.2578V41.0542C48.6133 38.7131 48.061 36.8958 46.9565 35.6025C45.8615 34.2998 44.3039 33.639 42.2837 33.6201H39.1118ZM54.3198 44.1978C54.3198 42.6968 54.6125 41.3468 55.1978 40.1479C55.7925 38.9491 56.6138 38.0239 57.6616 37.3726C58.7189 36.7212 59.9225 36.3955 61.2725 36.3955C63.3587 36.3955 65.0438 37.1177 66.3276 38.562C67.6209 40.0063 68.2676 41.9274 68.2676 44.3252V44.5093C68.2676 46.0008 67.9797 47.3413 67.4038 48.5308C66.8374 49.7108 66.0208 50.6312 64.9541 51.292C63.8968 51.9528 62.679 52.2832 61.3008 52.2832C59.224 52.2832 57.5389 51.561 56.2456 50.1167C54.9618 48.6724 54.3198 46.7607 54.3198 44.3818V44.1978ZM56.9536 44.5093C56.9536 46.2085 57.3454 47.5726 58.1289 48.6016C58.9219 49.6305 59.9792 50.145 61.3008 50.145C62.6318 50.145 63.6891 49.6258 64.4727 48.5874C65.2562 47.5396 65.6479 46.0763 65.6479 44.1978C65.6479 42.5174 65.2467 41.158 64.4443 40.1196C63.6514 39.0718 62.5941 38.5479 61.2725 38.5479C59.9792 38.5479 58.936 39.0623 58.1431 40.0913C57.3501 41.1203 56.9536 42.5929 56.9536 44.5093ZM85.1182 48.3892L88.0635 36.6787H90.6831L86.2227 52H84.0986L80.3745 40.3887L76.7495 52H74.6255L70.1792 36.6787H72.7847L75.8008 48.1484L79.3691 36.6787H81.479L85.1182 48.3892ZM95.8374 36.6787L95.9224 38.6045C97.0929 37.1318 98.6222 36.3955 100.51 36.3955C103.748 36.3955 105.381 38.2222 105.41 41.8755V52H102.79V41.8613C102.781 40.7568 102.526 39.9403 102.025 39.4116C101.535 38.883 100.765 38.6187 99.7173 38.6187C98.8677 38.6187 98.1219 38.8452 97.48 39.2983C96.8381 39.7515 96.3377 40.3462 95.979 41.0825V52H93.3594V36.6787H95.8374ZM112.207 52H109.587V30.25H112.207V52ZM115.718 44.1978C115.718 42.6968 116.011 41.3468 116.596 40.1479C117.191 38.9491 118.012 38.0239 119.06 37.3726C120.117 36.7212 121.321 36.3955 122.671 36.3955C124.757 36.3955 126.442 37.1177 127.726 38.562C129.019 40.0063 129.666 41.9274 129.666 44.3252V44.5093C129.666 46.0008 129.378 47.3413 128.802 48.5308C128.236 49.7108 127.419 50.6312 126.353 51.292C125.295 51.9528 124.077 52.2832 122.699 52.2832C120.622 52.2832 118.937 51.561 117.644 50.1167C116.36 48.6724 115.718 46.7607 115.718 44.3818V44.1978ZM118.352 44.5093C118.352 46.2085 118.744 47.5726 119.527 48.6016C120.32 49.6305 121.378 50.145 122.699 50.145C124.03 50.145 125.088 49.6258 125.871 48.5874C126.655 47.5396 127.046 46.0763 127.046 44.1978C127.046 42.5174 126.645 41.158 125.843 40.1196C125.05 39.0718 123.993 38.5479 122.671 38.5479C121.378 38.5479 120.334 39.0623 119.542 40.0913C118.749 41.1203 118.352 42.5929 118.352 44.5093ZM142.41 52C142.259 51.6979 142.136 51.1598 142.042 50.3857C140.824 51.6507 139.37 52.2832 137.681 52.2832C136.17 52.2832 134.929 51.8584 133.957 51.0088C132.994 50.1497 132.512 49.0641 132.512 47.752C132.512 46.1566 133.116 44.9199 134.325 44.042C135.542 43.1546 137.251 42.7109 139.451 42.7109H142V41.5073C142 40.5916 141.726 39.8647 141.178 39.3267C140.631 38.7791 139.824 38.5054 138.757 38.5054C137.822 38.5054 137.039 38.7414 136.406 39.2134C135.774 39.6854 135.458 40.2565 135.458 40.9268H132.824C132.824 40.1621 133.093 39.4258 133.631 38.7178C134.178 38.0003 134.915 37.4339 135.84 37.0186C136.774 36.6032 137.799 36.3955 138.913 36.3955C140.678 36.3955 142.061 36.8392 143.062 37.7266C144.062 38.6045 144.581 39.8175 144.619 41.3657V48.4175C144.619 49.8241 144.799 50.9427 145.157 51.7734V52H142.41ZM138.063 50.0034C138.884 50.0034 139.663 49.791 140.399 49.3662C141.136 48.9414 141.669 48.3892 142 47.7095V44.5659H139.946C136.737 44.5659 135.132 45.5052 135.132 47.3838C135.132 48.2051 135.406 48.847 135.953 49.3096C136.501 49.7721 137.204 50.0034 138.063 50.0034ZM148.088 44.2119C148.088 41.8613 148.645 39.9733 149.759 38.5479C150.873 37.113 152.332 36.3955 154.135 36.3955C155.928 36.3955 157.349 37.0091 158.397 38.2363V30.25H161.017V52H158.609L158.482 50.3574C157.434 51.6413 155.976 52.2832 154.106 52.2832C152.332 52.2832 150.883 51.5563 149.759 50.1025C148.645 48.6488 148.088 46.7513 148.088 44.4102V44.2119ZM150.708 44.5093C150.708 46.2463 151.067 47.6056 151.784 48.5874C152.502 49.5692 153.493 50.0601 154.758 50.0601C156.419 50.0601 157.632 49.3143 158.397 47.8228V40.7852C157.613 39.3408 156.41 38.6187 154.786 38.6187C153.502 38.6187 152.502 39.1143 151.784 40.1055C151.067 41.0967 150.708 42.5646 150.708 44.5093ZM181.747 52C181.596 51.6979 181.473 51.1598 181.379 50.3857C180.161 51.6507 178.707 52.2832 177.018 52.2832C175.507 52.2832 174.266 51.8584 173.293 51.0088C172.331 50.1497 171.849 49.0641 171.849 47.752C171.849 46.1566 172.453 44.9199 173.662 44.042C174.879 43.1546 176.588 42.7109 178.788 42.7109H181.336V41.5073C181.336 40.5916 181.063 39.8647 180.515 39.3267C179.968 38.7791 179.16 38.5054 178.094 38.5054C177.159 38.5054 176.376 38.7414 175.743 39.2134C175.111 39.6854 174.794 40.2565 174.794 40.9268H172.161C172.161 40.1621 172.43 39.4258 172.968 38.7178C173.515 38.0003 174.252 37.4339 175.177 37.0186C176.111 36.6032 177.136 36.3955 178.25 36.3955C180.015 36.3955 181.398 36.8392 182.398 37.7266C183.399 38.6045 183.918 39.8175 183.956 41.3657V48.4175C183.956 49.8241 184.135 50.9427 184.494 51.7734V52H181.747ZM177.4 50.0034C178.221 50.0034 179 49.791 179.736 49.3662C180.473 48.9414 181.006 48.3892 181.336 47.7095V44.5659H179.283C176.074 44.5659 174.469 45.5052 174.469 47.3838C174.469 48.2051 174.743 48.847 175.29 49.3096C175.838 49.7721 176.541 50.0034 177.4 50.0034ZM201.005 44.5093C201.005 46.841 200.472 48.7196 199.405 50.145C198.338 51.5705 196.894 52.2832 195.072 52.2832C193.212 52.2832 191.749 51.6932 190.682 50.5132V57.8906H188.062V36.6787H190.456L190.583 38.3779C191.65 37.0563 193.132 36.3955 195.029 36.3955C196.87 36.3955 198.324 37.0894 199.391 38.4771C200.467 39.8647 201.005 41.7952 201.005 44.2686V44.5093ZM198.385 44.2119C198.385 42.4844 198.017 41.1203 197.281 40.1196C196.544 39.119 195.534 38.6187 194.25 38.6187C192.665 38.6187 191.475 39.3219 190.682 40.7285V48.0493C191.466 49.4465 192.665 50.145 194.279 50.145C195.534 50.145 196.53 49.6494 197.267 48.6582C198.012 47.6576 198.385 46.1755 198.385 44.2119ZM217.289 44.5093C217.289 46.841 216.756 48.7196 215.689 50.145C214.622 51.5705 213.178 52.2832 211.356 52.2832C209.496 52.2832 208.033 51.6932 206.966 50.5132V57.8906H204.347V36.6787H206.74L206.867 38.3779C207.934 37.0563 209.416 36.3955 211.313 36.3955C213.154 36.3955 214.608 37.0894 215.675 38.4771C216.751 39.8647 217.289 41.7952 217.289 44.2686V44.5093ZM214.669 44.2119C214.669 42.4844 214.301 41.1203 213.565 40.1196C212.829 39.119 211.819 38.6187 210.535 38.6187C208.949 38.6187 207.759 39.3219 206.966 40.7285V48.0493C207.75 49.4465 208.949 50.145 210.563 50.145C211.819 50.145 212.814 49.6494 213.551 48.6582C214.297 47.6576 214.669 46.1755 214.669 44.2119Z" fill="black"/>
<defs>
<linearGradient id="paint0_linear" x1="292.5" y1="8" x2="292.5" y2="75" gradientUnits="userSpaceOnUse">
<stop stop-color="#21B2F8"/>
<stop offset="1" stop-color="#7F6DEC"/>
<stop offset="1" stop-color="#7F6DEC"/>
</linearGradient>
</defs>
</svg>
