<svg width="97" height="97" viewBox="0 0 97 97" fill="none" xmlns="http://www.w3.org/2000/svg">
<path opacity="0.9" d="M52.5215 12.125C32.4142 12.125 16.1667 28.4129 16.1667 48.5H4.04166L19.7839 64.2423L20.0669 64.8283L36.375 48.5H24.25C24.25 32.879 36.9206 20.2083 52.5417 20.2083C68.1627 20.2083 80.8333 32.879 80.8333 48.5C80.8333 64.121 68.1627 76.7917 52.5417 76.7917C44.721 76.7917 37.6683 73.5987 32.5556 68.486L26.8367 74.205C33.4044 80.7929 42.4779 84.875 52.5215 84.875C72.6287 84.875 88.9167 68.5871 88.9167 48.5C88.9167 28.4129 72.6287 12.125 52.5215 12.125ZM48.5 32.3333V52.5417L65.7983 62.8075L68.7083 57.8969L54.5625 49.5104V32.3333H48.5Z" fill="url(#paint0_linear)"/>
<defs>
<linearGradient id="paint0_linear" x1="46.4792" y1="12.125" x2="46.4792" y2="84.875" gradientUnits="userSpaceOnUse">
<stop stop-color="#21B2F8"/>
<stop offset="1" stop-color="#7F6DEC"/>
<stop offset="1" stop-color="#7F6DEC"/>
</linearGradient>
</defs>
</svg>
