<svg width="160" height="160" viewBox="0 0 160 160" fill="none" xmlns="http://www.w3.org/2000/svg">
<path fill-rule="evenodd" clip-rule="evenodd" d="M80.938 74.708C84.085 77.2 87.358 79.555 90.345 82.227C93.062 84.655 95.771 87.107 98.184 89.889C100.5 92.56 102.793 95.23 104.889 98.077C108.66 103.202 111.712 108.704 112.956 114.984C113.842 119.467 113.651 123.923 110.809 127.872C108.615 130.918 105.513 132.602 102.008 133.493C98.279 134.44 94.501 134.734 90.591 134.45C83.852 133.961 77.421 132.367 71.079 130.195C68.176 129.201 65.368 127.971 62.532 126.774C61.39 133.336 60.96 139.922 59.408 146.411C59.628 146.411 60.111 146.411 60.594 146.411C85.93 146.411 111.267 146.41 136.604 146.419C137.214 146.42 137.975 146.074 137.998 147.32C138.019 148.551 137.342 148.373 136.605 148.373C117.193 148.37 97.783 148.371 78.372 148.371C55.088 148.371 31.805 148.371 8.52102 148.368C7.87302 148.368 7.17502 148.62 7.16002 147.43C7.14502 146.303 7.71602 146.405 8.44502 146.406C17.124 146.416 25.803 146.412 34.482 146.412C36.247 146.412 38.012 146.412 40.036 146.412C38.678 145.592 38.108 144.499 38.021 143.204C37.936 141.945 38.54 140.822 38.991 139.695C41.694 132.943 44.422 126.202 47.167 119.467C47.45 118.773 47.272 118.356 46.688 117.998C40.824 114.418 35.483 110.165 30.341 105.617C24.065 100.064 18.558 93.865 14.113 86.777C11.235 82.185 8.98402 77.251 8.37002 71.796C7.86202 67.284 8.67802 62.956 11.951 59.564C14.429 56.994 17.659 55.611 21.146 54.86C24.713 54.092 28.343 54.122 31.928 54.354C36.786 54.669 41.554 55.705 46.214 57.13C52.719 59.119 58.974 61.735 64.998 64.894C68.811 66.894 72.517 69.083 76.132 71.424C76.146 72.189 75.523 72.542 75.083 72.992C69.915 78.298 64.39 83.24 59.232 88.558C57.306 90.543 57.098 92.53 59.034 94.631C61.033 96.799 63.487 97.935 66.564 97.11C67.467 96.868 68.03 96.361 68.454 95.602C72.044 89.177 75.792 82.843 79.467 76.467C79.85 75.804 80.072 74.979 80.938 74.708Z" fill="url(#paint0_linear)"/>
<path fill-rule="evenodd" clip-rule="evenodd" d="M151.854 62.665C145.814 35.289 125.13 9.56902 85.551 9.69402C86.498 8.96702 87.649 9.11102 88.639 9.02502C90.341 8.87802 92.039 8.59802 93.771 8.64102C96.167 8.70102 98.552 8.50102 100.969 8.59702C108.549 8.89602 115.849 10.3 122.872 13.161C128.183 15.323 132.903 18.425 136.972 22.427C142.71 28.073 146.504 34.923 148.849 42.594C150.096 46.671 150.97 50.82 151.421 55.069C151.689 57.603 152.073 60.119 151.854 62.665Z" fill="#9ECDFA"/>
<path fill-rule="evenodd" clip-rule="evenodd" d="M80.938 74.708C76.988 81.502 73.025 88.289 69.093 95.094C67.685 97.533 66.695 98.065 63.843 97.704C60.283 97.254 57.33 94.264 57.314 91.135C57.309 90.237 57.594 89.569 58.258 88.926C63.822 83.551 69.354 78.143 74.891 72.74C75.322 72.32 75.718 71.864 76.132 71.425C79.447 68.237 82.756 65.042 86.089 61.871C86.465 61.512 86.749 60.731 87.542 61.33C88.345 61.935 87.941 62.492 87.578 63.122C85.354 66.978 83.15 70.845 80.938 74.708Z" fill="#9ECDFA"/>
<path fill-rule="evenodd" clip-rule="evenodd" d="M128.313 61.348C127.267 54.064 124.656 47.596 119.931 42.003C113.304 34.159 104.617 30.274 94.731 28.495C91.418 27.899 88.064 27.798 84.476 27.303C89.099 26.585 93.422 26.93 97.767 27.371C102.037 27.806 106.176 28.69 110.19 30.184C116.963 32.704 122.44 36.798 125.734 43.372C127.297 46.491 128.155 49.834 128.498 53.351C128.711 55.543 128.613 57.717 128.71 59.896C128.731 60.399 128.77 60.924 128.313 61.348Z" fill="#9ECDFA"/>
<path fill-rule="evenodd" clip-rule="evenodd" d="M109.801 56.915C107.208 43.54 98.183 38.453 85.412 37.983C86.428 37.16 87.558 37.394 88.48 37.322C92.864 36.982 97.258 37.145 101.27 39.21C105.912 41.599 108.607 45.476 109.411 50.658C109.729 52.703 110.106 54.739 109.801 56.915Z" fill="#9ECDFA"/>
<path fill-rule="evenodd" clip-rule="evenodd" d="M97.183 62.876C96.656 59.584 95.426 56.816 93.215 54.473C91.07 52.2 88.494 50.697 85.533 49.743C89.476 49.629 92.939 50.594 95.572 53.756C97.16 55.664 98.25 61.043 97.183 62.876Z" fill="#9ECDFA"/>
<defs>
<linearGradient id="paint0_linear" x1="72.5791" y1="54.2097" x2="72.5791" y2="148.39" gradientUnits="userSpaceOnUse">
<stop stop-color="#21B2F8"/>
<stop offset="1" stop-color="#7F6DEC"/>
<stop offset="1" stop-color="#7F6DEC"/>
</linearGradient>
</defs>
</svg>
