<svg width="98" height="98" viewBox="0 0 98 98" fill="none" xmlns="http://www.w3.org/2000/svg">
<g clip-path="url(#clip0)">
<path d="M96.0381 34.0605L94.3455 32.3679C81.3737 19.3979 64.626 13.5858 49 13.5858C33.3868 13.5858 16.6338 19.3902 3.65452 32.3679L1.96191 34.0605C0.696719 35.3257 0 37.0082 0 38.7978C0 40.5628 0.715094 42.2899 1.96191 43.5369C4.57423 46.1482 8.82574 46.148 11.4386 43.5363L13.1307 41.8443C22.7121 32.2627 35.4505 26.9862 49 26.9862C62.5495 26.9862 75.2879 32.2627 84.8691 41.8441L86.5621 43.5373C89.1743 46.1482 93.4258 46.148 96.0387 43.5363C97.2849 42.2899 98 40.5628 98 38.7978C98 37.0082 97.3033 35.3257 96.0381 34.0605Z" fill="#50C8FF"/>
<path d="M80.8088 45.9044C72.3121 37.4077 61.0154 32.7284 48.9999 32.7284C36.9844 32.7284 25.6878 37.4077 17.1911 45.9044L15.4988 47.5968C12.8804 50.2141 12.8783 54.4516 15.4985 57.0718C18.0947 59.6678 22.3315 59.7122 24.9758 57.0706L26.6657 55.3807C32.8232 49.2232 40.9117 46.1444 48.9999 46.1444C57.0882 46.1444 65.1766 49.2232 71.3342 55.3807L73.025 57.0718C75.6758 59.7197 79.9134 59.6596 82.5014 57.0718C85.1179 54.4553 85.1225 50.2172 82.5018 47.5978L80.8088 45.9044Z" fill="#50C8FF"/>
<path d="M67.2738 59.441C62.2356 54.403 55.6177 51.8839 48.9999 51.8839C42.382 51.8839 35.7641 54.403 30.7259 59.441L29.035 61.1321C26.4461 63.7184 26.3865 67.9628 29.0341 70.6073C31.6514 73.2259 35.8885 73.2295 38.5096 70.6084L40.2022 68.9158C42.5521 66.5661 45.6765 65.272 49 65.272C52.3236 65.272 55.448 66.5661 57.7977 68.9156L59.4903 70.6082C62.1068 73.2247 66.3451 73.2282 68.9649 70.6084C71.5603 68.0158 71.6076 63.772 68.966 61.1332L67.2738 59.441Z" fill="#50C8FF"/>
<path d="M48.9998 71.0142C45.3049 71.0142 42.2988 74.0202 42.2988 77.7151C42.2988 81.4091 45.3049 84.4142 48.9998 84.4142C52.6947 84.4142 55.7007 81.4091 55.7007 77.7151C55.7007 74.0202 52.6947 71.0142 48.9998 71.0142Z" fill="#50C8FF"/>
<path d="M86.5621 43.5373C89.1743 46.1482 93.4258 46.148 96.0387 43.5363C97.2849 42.2899 98 40.5628 98 38.7978C98 37.008 97.3033 35.3255 96.0381 34.0605L94.3455 32.3679C81.3737 19.3979 64.626 13.5858 49 13.5858V26.9862C62.5495 26.9862 75.2879 32.2627 84.8692 41.8441L86.5621 43.5373Z" fill="#3291FF"/>
<path d="M73.0253 57.0718C75.6761 59.7197 79.9136 59.6596 82.5016 57.0718C85.1182 54.4553 85.1229 50.2172 82.502 47.5978L80.8088 45.9044C72.3121 37.4077 61.0155 32.7284 49 32.7284V46.1444C57.0883 46.1444 65.1767 49.2232 71.3342 55.3807L73.0253 57.0718Z" fill="#3291FF"/>
<path d="M59.4902 70.6082C62.1067 73.2248 66.345 73.2282 68.9648 70.6084C71.5603 68.0158 71.6076 63.7718 68.966 61.1332L67.2739 59.441C62.2357 54.403 55.6179 51.8839 49 51.8839V65.272C52.3236 65.272 55.4479 66.5661 57.7976 68.9156L59.4902 70.6082Z" fill="#3291FF"/>
<path d="M55.7009 77.715C55.7009 74.0201 52.6949 71.014 49 71.014V84.414C52.6949 84.4142 55.7009 81.4089 55.7009 77.715Z" fill="#3291FF"/>
</g>
<defs>
<clipPath id="clip0">
<rect width="98" height="98" fill="white"/>
</clipPath>
</defs>
</svg>
