<svg width="22" height="26" viewBox="0 0 22 26" fill="none" xmlns="http://www.w3.org/2000/svg">
<g clip-path="url(#clip0)">
<path d="M16.9181 0.900908C13.7525 1.97104 12.0751 2.53846 11.1045 2.87195L10.3928 3.11584L6.55023 1.76199C4.43982 1.02036 2.6629 0.393215 2.60317 0.378283L2.48869 0.343441L2.47873 3.04118L2.4638 5.73892L1.29412 6.13213C0.652036 6.35113 0.0945701 6.56516 0.0597285 6.60996C0.0149321 6.66969 0 8.30724 0 14.3946C0 22.0348 0 22.0995 0.0995475 22.1991C0.154299 22.2538 0.228959 22.2986 0.263801 22.2986C0.293665 22.2986 2.70769 21.5023 5.61946 20.5317C8.53122 19.5611 10.9452 18.7647 10.9851 18.7647C11.0299 18.7647 11.8262 19.0086 12.762 19.3072C13.6928 19.6059 16.0172 20.3475 17.9186 20.9548C19.8199 21.557 21.5072 22.0946 21.6665 22.1493L21.9502 22.2439L21.9403 14.5688L21.9253 6.89864L20.9796 6.59502C20.462 6.43077 19.9941 6.27647 19.9493 6.26154C19.8647 6.2267 19.8597 6.03258 19.8597 3.1905V0.154301L19.7502 0.0796394C19.6905 0.0348434 19.6258 1.90735e-06 19.6059 1.90735e-06C19.591 1.90735e-06 18.3814 0.40317 16.9181 0.900908ZM19.3122 3.37964V6.06742L19.1778 6.02263C19.0982 5.99774 17.2715 5.41539 15.1063 4.72851C12.9462 4.04163 11.1692 3.46923 11.1593 3.45928C11.1493 3.4543 11.4728 3.33484 11.881 3.19548C13.205 2.74751 17.9285 1.13982 18.5656 0.920816C18.909 0.801359 19.2176 0.701811 19.2525 0.701811C19.2973 0.696835 19.3122 1.26426 19.3122 3.37964ZM10.5023 10.995V18.3068L10.2932 18.3864C9.92986 18.5158 0.617195 21.6018 0.582353 21.6018C0.562443 21.6018 0.547511 18.3118 0.547511 14.29V6.97828L5.46516 5.33575C8.16787 4.42987 10.4077 3.68824 10.4425 3.68824C10.4873 3.68326 10.5023 5.17647 10.5023 10.995ZM16.5448 8.01358C16.8932 8.1181 17.1869 8.21267 17.1919 8.22263C17.1968 8.23258 17.5701 9.55656 18.0181 11.1742C18.4611 12.7869 19.0385 14.8674 19.2923 15.7932C19.5511 16.724 19.7602 17.4955 19.7602 17.5204C19.7602 17.5403 19.4964 17.4805 19.1778 17.386C18.2122 17.0973 18.3367 17.2367 18.043 16.1516L17.7842 15.2059L16.2959 14.7529C15.4796 14.5041 14.7928 14.31 14.7778 14.3299C14.7579 14.3448 14.6136 14.6733 14.4593 15.0566C14.3 15.4398 14.1557 15.7733 14.1308 15.7982C14.081 15.8579 12.6326 15.4199 12.6624 15.3552C12.7023 15.2656 15.4846 8.44163 15.614 8.12308C15.6986 7.91901 15.7683 7.81448 15.8231 7.81448C15.8679 7.81448 16.1914 7.90407 16.5448 8.01358Z" fill="black" fill-opacity="0.3"/>
<path d="M5.22615 8.41675C4.64877 8.58598 4.50443 8.61086 4.19085 8.59593C3.84243 8.57602 3.83248 8.581 3.86234 8.68055C3.92207 8.87964 4.07139 9.13349 4.19085 9.23801C4.42976 9.46199 4.62388 9.52172 4.99719 9.49186C5.48497 9.46199 5.88316 9.29774 6.17683 9.01403C6.38588 8.81494 6.42072 8.75023 6.42072 8.59096C6.42072 8.14299 6.24153 8.11811 5.22615 8.41675Z" fill="black" fill-opacity="0.3"/>
<path d="M7.6899 9.45204C7.50075 9.5267 7.13741 9.69095 6.89352 9.81539C6.17677 10.1787 3.53379 11.0398 2.7175 11.1742C2.53333 11.2041 2.52836 11.214 2.55822 11.3633C2.62293 11.6869 2.8917 11.8462 3.36456 11.8462C3.82247 11.8462 4.12112 11.7068 4.14103 11.4828C4.15596 11.3335 4.17089 11.3235 4.57904 11.2091C4.81297 11.1493 5.36048 10.9851 5.79849 10.8507C6.71433 10.567 6.86863 10.5272 6.86863 10.5769C6.86863 10.6665 5.62428 13.0756 5.39035 13.4389C4.46456 14.8575 3.16546 16.5647 2.34419 17.4407L2.11523 17.6846L2.38401 17.6548C2.58809 17.6299 2.69759 17.5851 2.86184 17.4507C3.42428 16.9878 4.95732 15.1163 5.77361 13.9018C5.92293 13.6778 6.07225 13.4986 6.10211 13.5086C6.13198 13.5235 6.4356 13.7376 6.77406 13.9964C7.44103 14.4941 8.14781 14.9072 8.78492 15.1661C9.33243 15.39 9.37723 15.3851 9.33243 15.1213C9.25279 14.6484 9.19804 14.5738 8.8546 14.4244C8.68039 14.3498 8.03333 14.076 7.41614 13.8122C6.79894 13.5484 6.2813 13.3145 6.25641 13.2946C6.2365 13.2747 6.4356 12.9014 6.6994 12.4633C6.9632 12.0303 7.38628 11.2489 7.6451 10.7312C8.04329 9.93484 8.11297 9.75566 8.11297 9.55159C8.11297 9.4172 8.09804 9.30769 8.07813 9.31267C8.05324 9.31267 7.88401 9.37738 7.6899 9.45204Z" fill="black" fill-opacity="0.3"/>
<path d="M15.9427 11.4131C15.6888 12.0204 15.4499 12.5977 15.4101 12.6973L15.3354 12.8715L16.2861 13.1602C16.8038 13.3195 17.2418 13.4339 17.2567 13.419C17.2816 13.3941 16.53 10.6167 16.4354 10.3928C16.4106 10.3281 16.2612 10.6416 15.9427 11.4131Z" fill="black" fill-opacity="0.3"/>
<path d="M15.5795 22.2638C15.5795 22.2837 15.7138 22.5127 15.8781 22.7814L16.1767 23.2692L16.0672 23.3538C15.8582 23.5131 14.9075 23.986 14.3351 24.2149C11.6573 25.29 8.65095 25.1457 5.89846 23.8118C5.59981 23.6624 5.20162 23.4633 5.01746 23.3638C4.69393 23.1846 4.679 23.1846 4.55954 23.2642C4.40027 23.3688 4.39031 23.543 4.53963 23.6774C4.73375 23.8516 5.43058 24.2299 6.03285 24.4837C8.3971 25.4891 10.7564 25.733 12.9912 25.2054C14.0464 24.9566 15.4401 24.4041 16.1469 23.9511C16.2862 23.8615 16.4206 23.7919 16.4455 23.7919C16.4754 23.7919 16.6197 23.9959 16.769 24.2398C16.9184 24.4887 17.0428 24.6828 17.0528 24.6728C17.0776 24.648 17.8193 22.4977 17.8193 22.4529C17.8193 22.433 17.431 22.3882 16.9632 22.3534C16.4903 22.3235 15.9826 22.2837 15.8433 22.2638C15.6989 22.2489 15.5795 22.2489 15.5795 22.2638Z" fill="black" fill-opacity="0.3"/>
</g>
<defs>
<clipPath id="clip0">
<rect width="22" height="25.4842" fill="white"/>
</clipPath>
</defs>
</svg>
