<svg width="22" height="22" viewBox="0 0 22 22" fill="none" xmlns="http://www.w3.org/2000/svg">
<g clip-path="url(#clip0)">
<path d="M19.25 9.16675C19.25 15.5834 11 21.0834 11 21.0834C11 21.0834 2.75 15.5834 2.75 9.16675C2.75 6.97871 3.61919 4.88029 5.16637 3.33312C6.71354 1.78594 8.81196 0.916748 11 0.916748C13.188 0.916748 15.2865 1.78594 16.8336 3.33312C18.3808 4.88029 19.25 6.97871 19.25 9.16675Z" stroke="url(#paint0_linear)" stroke-width="2" stroke-linecap="round" stroke-linejoin="round"/>
<path d="M11 11.9167C12.5188 11.9167 13.75 10.6855 13.75 9.16675C13.75 7.64797 12.5188 6.41675 11 6.41675C9.48122 6.41675 8.25 7.64797 8.25 9.16675C8.25 10.6855 9.48122 11.9167 11 11.9167Z" stroke="url(#paint1_linear)" stroke-width="2" stroke-linecap="round" stroke-linejoin="round"/>
</g>
<defs>
<linearGradient id="paint0_linear" x1="11" y1="0.916748" x2="11" y2="21.0834" gradientUnits="userSpaceOnUse">
<stop stop-color="#7476ED"/>
<stop offset="1" stop-color="#2BABF6"/>
</linearGradient>
<linearGradient id="paint1_linear" x1="11" y1="6.41675" x2="11" y2="11.9167" gradientUnits="userSpaceOnUse">
<stop stop-color="#7476ED"/>
<stop offset="1" stop-color="#2BABF6"/>
</linearGradient>
<clipPath id="clip0">
<rect width="22" height="22" fill="white"/>
</clipPath>
</defs>
</svg>
