<svg width="84" height="84" viewBox="0 0 84 84" fill="none" xmlns="http://www.w3.org/2000/svg">
<path d="M11.5266 83.812C10.6085 83.4323 10.0078 82.5334 10.0078 81.5386V74.1558H7.38277C3.31175 74.1558 0 70.8441 0 66.773V46.9216C0 42.8506 3.31175 39.5388 7.38277 39.5388H56.7653C60.8363 39.5388 64.1481 42.8506 64.1481 46.9216V66.773C64.1481 70.8441 60.8363 74.1558 56.7653 74.1558H23.3314L14.2087 83.2785C13.4934 83.9939 12.4214 84.1883 11.5266 83.812Z" fill="#80BFFF"/>
<path d="M56.765 39.5388H32.1558V74.1558H56.765C60.836 74.1558 64.1478 70.844 64.1478 66.773V46.9216C64.1478 42.8506 60.8362 39.5388 56.765 39.5388Z" fill="#6699FF"/>
<path d="M69.7911 43.7396L60.6683 34.617H27.2343C23.1633 34.617 19.8516 31.3052 19.8516 27.2342V7.38277C19.8516 3.31175 23.1633 0 27.2343 0H76.6169C80.6879 0 83.9996 3.31175 83.9996 7.38277V27.2342C83.9996 31.3052 80.6879 34.617 76.6169 34.617H73.9919V41.9998C73.9919 42.9946 73.3911 43.8935 72.473 44.2732C71.5784 44.6495 70.507 44.4556 69.7911 43.7396Z" fill="#EDF5FF"/>
<path d="M22.312 59.2263C23.6712 59.2263 24.773 58.1245 24.773 56.7653C24.773 55.4062 23.6712 54.3044 22.312 54.3044C20.9529 54.3044 19.8511 55.4062 19.8511 56.7653C19.8511 58.1245 20.9529 59.2263 22.312 59.2263Z" fill="#EDF5FF"/>
<path d="M32.1558 59.2263C33.5149 59.2263 34.6167 58.1245 34.6167 56.7653C34.6167 55.4062 33.5149 54.3044 32.1558 54.3044C30.7966 54.3044 29.6948 55.4062 29.6948 56.7653C29.6948 58.1245 30.7966 59.2263 32.1558 59.2263Z" fill="#EDF5FF"/>
<path d="M41.999 59.2263C43.3582 59.2263 44.46 58.1245 44.46 56.7653C44.46 55.4062 43.3582 54.3044 41.999 54.3044C40.6399 54.3044 39.5381 55.4062 39.5381 56.7653C39.5381 58.1245 40.6399 59.2263 41.999 59.2263Z" fill="#EDF5FF"/>
<path d="M22.312 59.2263C23.6712 59.2263 24.773 58.1245 24.773 56.7653C24.773 55.4062 23.6712 54.3044 22.312 54.3044C20.9529 54.3044 19.8511 55.4062 19.8511 56.7653C19.8511 58.1245 20.9529 59.2263 22.312 59.2263Z" fill="#EDF5FF"/>
<path d="M41.999 59.2263C43.3582 59.2263 44.46 58.1245 44.46 56.7653C44.46 55.4062 43.3582 54.3044 41.999 54.3044C40.6399 54.3044 39.5381 55.4062 39.5381 56.7653C39.5381 58.1245 40.6399 59.2263 41.999 59.2263Z" fill="#D5E8FE"/>
<path d="M76.6165 0H51.8433V34.617H60.668L69.7906 43.7396C70.5059 44.4549 71.5779 44.6495 72.4727 44.2732C73.3908 43.8935 73.9916 42.9946 73.9916 41.9998V34.617H76.6165C80.6876 34.617 83.9993 31.3052 83.9993 27.2342V7.38277C83.9993 3.31175 80.6877 0 76.6165 0Z" fill="#D5E8FE"/>
<path d="M66.6087 14.7655H37.0776C35.7174 14.7655 34.6167 13.6648 34.6167 12.3046C34.6167 10.9444 35.7174 9.84369 37.0776 9.84369H66.6087C67.9689 9.84369 69.0696 10.9444 69.0696 12.3046C69.0696 13.6648 67.9689 14.7655 66.6087 14.7655Z" fill="#80BFFF"/>
<path d="M61.6875 24.7733H42C40.6398 24.7733 39.5391 23.6726 39.5391 22.3124C39.5391 20.9521 40.6398 19.8514 42 19.8514H61.6875C63.0477 19.8514 64.1484 20.9521 64.1484 22.3124C64.1484 23.6726 63.0477 24.7733 61.6875 24.7733Z" fill="#80BFFF"/>
<path d="M61.687 19.8514H51.8433V24.7733H61.687C63.0473 24.7733 64.1479 23.6726 64.1479 22.3124C64.1479 20.9521 63.0473 19.8514 61.687 19.8514Z" fill="#6699FF"/>
<path d="M66.6089 9.84369H51.8433V14.7656H66.6089C67.9691 14.7656 69.0698 13.6649 69.0698 12.3046C69.0698 10.9444 67.9691 9.84369 66.6089 9.84369Z" fill="#6699FF"/>
<path d="M34.6167 56.7653C34.6167 55.4059 33.5149 54.3044 32.1558 54.3044V59.2262C33.5149 59.2262 34.6167 58.1244 34.6167 56.7653Z" fill="#D5E8FE"/>
</svg>
