<svg width="160" height="160" viewBox="0 0 160 160" fill="none" xmlns="http://www.w3.org/2000/svg">
<path fill-rule="evenodd" clip-rule="evenodd" d="M38.165 120.873C34.476 121.888 30.887 122.831 27.33 123.879C26.179 124.218 25.77 123.935 25.453 122.788C21.295 107.78 17.097 92.783 12.868 77.795C12.562 76.709 12.649 75.867 13.253 74.899C16.181 70.211 19.05 65.487 21.901 60.752C22.357 59.994 22.901 59.562 23.766 59.333C28.187 58.159 32.588 56.907 37.007 55.723C37.858 55.495 38.269 55.194 38.228 54.191C38.132 51.859 38.192 49.52 38.199 47.185C38.207 44.495 39.958 42.715 42.65 42.709C49.139 42.695 55.629 42.665 62.116 42.739C63.38 42.754 64.209 42.071 65.175 41.549C65.621 41.308 65.431 40.86 65.447 40.496C65.508 39.074 65.35 37.647 65.642 36.228C66.519 31.962 70.322 29.153 74.777 29.51C78.943 29.844 82.264 33.404 82.363 37.656C82.389 38.781 82.435 39.911 82.35 41.029C82.252 42.305 82.842 42.721 84.016 42.712C86.913 42.688 89.812 42.704 92.711 42.704C96.387 42.704 100.065 42.698 103.74 42.706C106.625 42.712 108.318 44.412 108.322 47.301C108.328 51.41 108.342 55.52 108.306 59.63C108.3 60.377 108.46 60.663 109.269 60.745C112.623 61.084 115.966 61.497 119.31 61.921C120.029 62.012 120.374 61.827 120.64 61.114C122.103 57.202 123.617 53.31 125.13 49.418C125.839 47.593 126.698 47.23 128.55 47.931C129.314 48.22 130.073 48.524 130.829 48.832C132.583 49.546 132.993 50.401 132.311 52.166C131.088 55.339 129.838 58.503 128.555 61.653C128.19 62.552 128.121 62.938 129.348 63.055C133.518 63.452 137.69 63.889 141.828 64.526C145.535 65.097 147.853 68.47 147.373 72.193C147.258 73.093 147.086 73.993 147.064 74.896C147.039 76.036 146.566 76.377 145.449 76.228C142.193 75.79 138.924 75.474 135.672 75.017C134.676 74.877 134.35 75.074 134.229 76.116C133.081 85.986 131.87 95.849 130.682 105.717C130.389 108.162 130.082 110.607 129.836 113.057C129.422 117.178 126.197 119.847 122.066 119.402C117.943 118.959 113.818 118.528 109.709 117.988C108.498 117.828 108.178 118.168 108.307 119.306C108.393 120.075 108.33 120.862 108.321 121.64C108.29 124.179 106.583 125.942 104.038 126.063C103.821 126.074 103.604 126.068 103.39 126.068C83.317 126.068 63.245 126.061 43.173 126.079C41.196 126.081 39.629 125.459 38.63 123.675C38.166 122.845 38.201 121.932 38.165 120.873Z" fill="url(#paint0_linear)"/>
<path fill-rule="evenodd" clip-rule="evenodd" d="M67.277 133.637C84.833 133.637 102.388 133.637 119.945 133.637C120.248 133.637 120.55 133.648 120.853 133.635C121.443 133.611 121.953 133.798 121.937 134.447C121.917 135.108 121.367 135.223 120.798 135.2C120.538 135.189 120.28 135.198 120.021 135.198C84.822 135.198 49.624 135.202 14.425 135.178C13.754 135.177 12.577 135.655 12.561 134.46C12.544 133.156 13.778 133.659 14.479 133.659C32.079 133.631 49.678 133.637 67.277 133.637Z" fill="url(#paint1_linear)"/>
<path fill-rule="evenodd" clip-rule="evenodd" d="M129.051 133.637C130.088 133.636 131.125 133.64 132.16 133.635C132.709 133.631 133.119 133.848 133.135 134.426C133.151 135.039 132.703 135.199 132.17 135.198C130.053 135.196 127.938 135.197 125.822 135.194C125.265 135.194 124.881 134.955 124.916 134.359C124.945 133.843 125.316 133.635 125.812 133.636C126.893 133.638 127.973 133.637 129.051 133.637Z" fill="url(#paint2_linear)"/>
<path fill-rule="evenodd" clip-rule="evenodd" d="M56.942 52.299C67.813 52.299 78.699 52.299 89.646 52.299C89.619 52.067 89.62 51.857 89.568 51.661C89.103 49.891 89.1 49.892 90.882 49.892C93.349 49.892 95.814 49.885 98.278 49.893C100.7 49.901 101.909 51.061 101.909 53.437C101.917 74.072 101.917 94.706 101.909 115.34C101.909 117.61 100.657 118.838 98.352 118.839C81.654 118.845 64.956 118.845 48.258 118.839C45.799 118.838 44.644 117.65 44.644 115.163C44.643 94.658 44.643 74.153 44.644 53.649C44.644 50.978 45.738 49.894 48.432 49.891C51.028 49.888 53.624 49.926 56.218 49.873C57.243 49.852 57.708 50.024 57.161 51.129C57 51.458 56.803 51.833 56.942 52.299Z" fill="#FEFEFE"/>
<path fill-rule="evenodd" clip-rule="evenodd" d="M84.688 43.828C91.251 43.828 97.522 43.811 103.793 43.838C105.879 43.847 107.193 45.188 107.193 47.275C107.203 66.694 107.199 86.113 107.197 105.533C107.197 110.721 107.201 115.909 107.199 121.097C107.199 123.619 106.008 124.88 103.486 124.882C83.332 124.897 63.176 124.897 43.021 124.882C40.524 124.88 39.375 123.653 39.375 121.195C39.377 100.09 39.376 78.984 39.376 57.879C39.376 54.335 39.362 50.79 39.382 47.245C39.393 45.186 40.622 43.854 42.646 43.842C48.954 43.805 55.261 43.828 61.87 43.828C60.41 45.343 59.195 46.766 58.307 48.428C58.045 48.917 57.531 48.707 57.127 48.709C54.056 48.724 50.985 48.711 47.914 48.719C45.261 48.726 43.436 50.531 43.435 53.192C43.428 73.953 43.429 94.714 43.435 115.475C43.435 118.301 45.28 120.051 48.247 120.054C57.07 120.062 65.893 120.057 74.717 120.057C82.503 120.057 90.288 120.058 98.073 120.056C101.417 120.054 103.091 118.378 103.091 115.036C103.091 94.534 103.091 74.033 103.091 53.532C103.091 50.386 101.435 48.719 98.312 48.718C95.371 48.717 92.429 48.687 89.49 48.739C88.708 48.752 88.222 48.569 87.856 47.847C87.113 46.382 85.959 45.211 84.688 43.828Z" fill="#EFEEF4"/>
<path fill-rule="evenodd" clip-rule="evenodd" d="M137.334 65.132C134.377 66.867 133.809 69.482 133.48 72.321C131.98 85.281 130.398 98.231 128.847 111.185C128.771 111.829 128.747 112.48 128.642 113.118C128.05 116.718 125.41 118.689 121.816 118.231C118.23 117.774 116.179 115.18 116.541 111.55C116.676 110.217 116.789 108.88 116.992 107.558C117.119 106.736 116.92 106.372 116.039 106.29C113.803 106.083 111.576 105.771 109.34 105.552C108.613 105.48 108.305 105.267 108.307 104.458C108.332 90.573 108.328 76.689 108.313 62.806C108.311 62.073 108.487 61.824 109.26 61.919C112.52 62.317 115.783 62.676 119.049 63.016C120.172 63.133 119.588 63.757 119.422 64.19C117.535 69.1 115.676 74.021 113.692 78.892C113.215 80.065 113.292 81.135 113.471 82.283C113.684 83.648 113.869 85.019 114.086 86.384C114.231 87.284 114.713 87.468 115.43 86.915C116.936 85.753 118.424 84.567 119.926 83.402C120.334 83.087 120.447 82.622 120.619 82.183C122.832 76.475 125.064 70.773 127.234 65.047C127.56 64.181 127.955 64.005 128.834 64.128C131.529 64.508 134.238 64.776 137.334 65.132Z" fill="#FEFEFE"/>
<path fill-rule="evenodd" clip-rule="evenodd" d="M124.973 54.193C126.35 54.754 127.799 55.306 129.211 55.941C129.678 56.15 129.27 56.547 129.164 56.823C126.025 64.948 122.867 73.066 119.742 81.196C119.494 81.843 119.258 81.961 118.633 81.677C117.574 81.196 116.485 80.781 115.391 80.385C114.811 80.175 114.565 79.939 114.827 79.271C118.016 71.12 121.182 62.958 124.354 54.8C124.459 54.528 124.488 54.189 124.973 54.193Z" fill="#E8E7F0"/>
<path fill-rule="evenodd" clip-rule="evenodd" d="M117.488 117.716C114.601 117.383 111.91 117.042 109.213 116.783C108.463 116.711 108.305 116.414 108.313 115.734C108.342 112.975 108.344 110.216 108.311 107.458C108.301 106.769 108.483 106.558 109.188 106.657C111.108 106.928 113.03 107.187 114.959 107.34C115.795 107.406 115.813 107.751 115.719 108.407C115.535 109.684 115.399 110.97 115.297 112.257C115.129 114.357 116.063 116.068 117.488 117.716Z" fill="#FEFEFE"/>
<path fill-rule="evenodd" clip-rule="evenodd" d="M73.942 34.925C75.563 34.925 76.892 36.245 76.915 37.878C76.939 39.569 75.592 40.941 73.915 40.93C72.307 40.92 70.939 39.58 70.907 37.983C70.875 36.352 72.291 34.924 73.942 34.925Z" fill="#FEFEFE"/>
<path fill-rule="evenodd" clip-rule="evenodd" d="M131.395 50.992C130.944 52.158 130.506 53.365 130.006 54.544C129.852 54.905 129.481 54.718 129.203 54.608C128.045 54.149 126.9 53.648 125.726 53.234C125.148 53.03 125.136 52.794 125.365 52.293C125.754 51.437 126.099 50.556 126.388 49.662C126.638 48.896 127.134 48.755 127.786 48.996C128.79 49.368 129.77 49.8 130.768 50.191C131.129 50.333 131.318 50.581 131.395 50.992Z" fill="#FEFEFE"/>
<path fill-rule="evenodd" clip-rule="evenodd" d="M118.381 82.83C118.326 82.99 118.322 83.101 118.268 83.142C117.288 83.888 116.424 84.79 115.307 85.354C114.702 84.152 114.881 82.809 114.485 81.313C115.916 81.87 117.148 82.35 118.381 82.83Z" fill="#F9F9FB"/>
<path fill-rule="evenodd" clip-rule="evenodd" d="M57.879 62.172C62.292 62.206 65.731 65.729 65.67 70.151C65.61 74.473 62.074 77.886 57.71 77.831C53.295 77.776 49.938 74.271 50.002 69.786C50.062 65.527 53.569 62.137 57.879 62.172Z" fill="url(#paint3_linear)"/>
<path fill-rule="evenodd" clip-rule="evenodd" d="M76.8699 89.354C71.6369 89.354 66.4049 89.355 61.1719 89.354C60.8259 89.354 60.4799 89.361 60.1349 89.331C59.8519 89.308 59.6269 89.128 59.5989 88.85C59.5659 88.521 59.7539 88.252 60.0909 88.202C60.4299 88.149 60.7809 88.169 61.1269 88.169C71.6779 88.167 82.2299 88.168 92.7789 88.168C92.9959 88.168 93.2129 88.171 93.4289 88.168C93.8509 88.161 94.2449 88.248 94.2749 88.751C94.3079 89.297 93.8799 89.347 93.4739 89.353C92.7829 89.362 92.0889 89.356 91.3979 89.356C86.5549 89.355 81.7129 89.354 76.8699 89.354Z" fill="#2E257B"/>
<path fill-rule="evenodd" clip-rule="evenodd" d="M72.171 98.069C75.845 98.069 79.52 98.068 83.194 98.072C83.538 98.072 83.89 98.07 84.222 98.142C84.482 98.199 84.661 98.419 84.648 98.715C84.634 99.001 84.474 99.214 84.187 99.256C83.891 99.3 83.585 99.296 83.285 99.296C75.849 99.298 68.413 99.298 60.977 99.297C60.675 99.297 60.37 99.306 60.072 99.27C59.78 99.234 59.614 99 59.577 98.742C59.537 98.455 59.75 98.23 59.998 98.167C60.324 98.082 60.676 98.073 61.017 98.073C64.735 98.067 68.453 98.069 72.171 98.069Z" fill="#30287D"/>
<path fill-rule="evenodd" clip-rule="evenodd" d="M72.026 109.201C68.269 109.201 64.512 109.204 60.755 109.197C60.265 109.197 59.563 109.354 59.603 108.575C59.634 107.964 60.259 108.012 60.736 108.012C68.337 108.011 75.937 108.011 83.539 108.015C84.003 108.015 84.616 107.95 84.626 108.615C84.636 109.308 84.019 109.199 83.558 109.199C79.712 109.203 75.869 109.201 72.026 109.201Z" fill="#2E257C"/>
<path fill-rule="evenodd" clip-rule="evenodd" d="M81.669 65.844C85.381 65.844 89.094 65.84 92.807 65.849C93.246 65.85 93.897 65.666 93.922 66.36C93.953 67.118 93.276 67.028 92.774 67.028C85.305 67.034 77.838 67.033 70.37 67.031C69.901 67.031 69.287 67.109 69.257 66.46C69.218 65.637 69.929 65.852 70.403 65.85C74.158 65.838 77.914 65.844 81.669 65.844Z" fill="#2E267C"/>
<path fill-rule="evenodd" clip-rule="evenodd" d="M78.2979 73.37C80.9309 73.37 83.5659 73.37 86.1989 73.371C86.7119 73.372 87.3749 73.282 87.3189 74.048C87.2699 74.72 86.6249 74.556 86.1769 74.557C80.9089 74.565 75.6409 74.565 70.3739 74.556C69.9309 74.555 69.2839 74.721 69.2539 74.027C69.2199 73.243 69.8989 73.377 70.3959 73.375C73.0309 73.366 75.6639 73.37 78.2979 73.37Z" fill="#2F267C"/>
<path fill-rule="evenodd" clip-rule="evenodd" d="M52.407 88.068C52.471 88.09 52.531 88.09 52.55 88.119C53.694 89.777 54.644 88.351 55.647 87.917C56.032 87.75 56.535 87.32 56.781 87.768C57.03 88.218 56.394 88.435 56.042 88.648C55.527 88.961 54.994 89.242 54.471 89.539C53.406 90.146 52.529 89.819 52.08 88.658C51.939 88.293 51.994 88.077 52.407 88.068Z" fill="#32297E"/>
<path fill-rule="evenodd" clip-rule="evenodd" d="M56.84 98.271C56.809 98.371 56.793 98.457 56.756 98.531C56.607 98.829 53.716 100.474 53.422 100.375C52.678 100.123 52.334 99.47 52.02 98.814C51.994 98.761 52.118 98.57 52.204 98.543C52.416 98.473 52.661 98.5 52.779 98.71C53.447 99.885 54.163 99.202 54.883 98.784C55.328 98.525 55.77 98.252 56.239 98.046C56.442 97.957 56.755 97.919 56.84 98.271Z" fill="#30287D"/>
<path fill-rule="evenodd" clip-rule="evenodd" d="M52.4189 108.128C52.5009 108.155 52.6239 108.157 52.6559 108.213C53.5519 109.721 54.4009 108.592 55.2789 108.188C55.7569 107.968 56.4259 107.24 56.7219 107.782C57.1009 108.475 56.0589 108.569 55.6349 108.912C55.2699 109.205 54.8259 109.402 54.4119 109.632C53.4329 110.175 52.3019 109.679 52.0399 108.61C51.9519 108.253 52.0919 108.13 52.4189 108.128Z" fill="#2F277C"/>
<path fill-rule="evenodd" clip-rule="evenodd" d="M52.9601 74.916C50.1891 72.573 50.0491 68.099 52.6111 65.263C55.2701 62.319 59.8121 62.165 62.6941 64.921C65.5701 67.671 65.6281 72.075 62.6751 75.024C62.4991 73.474 62.1191 72.107 60.9641 71.112C60.6411 70.835 61.0061 70.553 61.0721 70.294C61.4861 68.687 61.0421 67.234 59.8341 66.377C58.6901 65.564 57.1131 65.53 55.9381 66.292C54.6711 67.113 54.1101 68.548 54.5621 70.15C54.7311 70.751 54.7441 71.161 54.2701 71.611C53.3471 72.488 53.1981 73.717 52.9601 74.916Z" fill="#E8E7F0"/>
<path fill-rule="evenodd" clip-rule="evenodd" d="M57.8839 77.048C56.9679 77.063 56.0849 76.913 55.2369 76.548C54.4409 76.205 53.5629 75.939 53.5889 74.833C53.6179 73.623 54.0339 72.558 54.9099 71.698C55.2229 71.391 55.4479 71.669 55.6869 71.843C57.1239 72.889 58.5799 72.887 59.9809 71.821C60.4749 71.445 60.7289 71.619 61.0409 71.987C61.8059 72.891 62.1029 73.937 62.0339 75.108C62.0059 75.595 61.7479 75.888 61.3389 76.111C60.2609 76.701 59.1249 77.062 57.8839 77.048Z" fill="#E8E7F0"/>
<defs>
<linearGradient id="paint0_linear" x1="80.0659" y1="29.4795" x2="80.0659" y2="126.079" gradientUnits="userSpaceOnUse">
<stop stop-color="#21B2F8"/>
<stop offset="1" stop-color="#7F6DEC"/>
<stop offset="1" stop-color="#7F6DEC"/>
</linearGradient>
<linearGradient id="paint1_linear" x1="67.2491" y1="133.564" x2="67.2491" y2="135.272" gradientUnits="userSpaceOnUse">
<stop stop-color="#21B2F8"/>
<stop offset="1" stop-color="#7F6DEC"/>
<stop offset="1" stop-color="#7F6DEC"/>
</linearGradient>
<linearGradient id="paint2_linear" x1="129.025" y1="133.635" x2="129.025" y2="135.198" gradientUnits="userSpaceOnUse">
<stop stop-color="#21B2F8"/>
<stop offset="1" stop-color="#7F6DEC"/>
<stop offset="1" stop-color="#7F6DEC"/>
</linearGradient>
<linearGradient id="paint3_linear" x1="57.8359" y1="62.1718" x2="57.8359" y2="77.8317" gradientUnits="userSpaceOnUse">
<stop stop-color="#21B2F8"/>
<stop offset="1" stop-color="#7F6DEC"/>
<stop offset="1" stop-color="#7F6DEC"/>
</linearGradient>
</defs>
</svg>
