<svg width="20" height="21" viewBox="0 0 20 21" fill="none" xmlns="http://www.w3.org/2000/svg">
<path d="M18.3332 14.8051V17.4301C18.3341 17.6738 18.2866 17.915 18.1936 18.1383C18.1006 18.3615 17.9643 18.562 17.7933 18.7267C17.6222 18.8915 17.4203 19.0169 17.2005 19.095C16.9806 19.173 16.7477 19.202 16.5165 19.1801C13.9522 18.8875 11.489 17.9675 9.32486 16.4938C7.31139 15.1504 5.60431 13.358 4.32486 11.2438C2.91651 8.96114 2.04007 6.3622 1.76653 3.65758C1.7457 3.41562 1.77309 3.17175 1.84695 2.94151C1.9208 2.71126 2.03951 2.49969 2.1955 2.32025C2.3515 2.14082 2.54137 1.99746 2.75302 1.89929C2.96468 1.80113 3.19348 1.75031 3.42486 1.75008H5.92486C6.32928 1.74591 6.72136 1.89628 7.028 2.17318C7.33464 2.45007 7.53493 2.8346 7.59153 3.25508C7.69705 4.09514 7.89274 4.91997 8.17486 5.71383C8.28698 6.02702 8.31125 6.36738 8.24478 6.6946C8.17832 7.02182 8.02392 7.32218 7.79986 7.56008L6.74153 8.67133C7.92783 10.8619 9.65524 12.6757 11.7415 13.9213L12.7999 12.8101C13.0264 12.5748 13.3125 12.4127 13.6241 12.3429C13.9358 12.2731 14.2599 12.2986 14.5582 12.4163C15.3143 12.7126 16.0998 12.918 16.8999 13.0288C17.3047 13.0888 17.6744 13.3029 17.9386 13.6304C18.2029 13.9579 18.3433 14.376 18.3332 14.8051Z" stroke="url(#paint0_linear)" stroke-width="2" stroke-linecap="round" stroke-linejoin="round"/>
<defs>
<linearGradient id="paint0_linear" x1="10.0467" y1="1.75" x2="10.0467" y2="19.1872" gradientUnits="userSpaceOnUse">
<stop stop-color="#7476ED"/>
<stop offset="1" stop-color="#2BABF6"/>
</linearGradient>
</defs>
</svg>
