<svg width="86" height="86" viewBox="0 0 86 86" fill="none" xmlns="http://www.w3.org/2000/svg">
<g clip-path="url(#clip0)">
<path d="M43 85.9993C19.235 85.9993 0 66.7407 0 43C0 19.2344 19.2318 0 43 0C66.7656 0 85.9993 19.2318 85.9993 43C85.9993 66.7636 66.7387 85.9993 43 85.9993Z" fill="#66A9DF"/>
<path d="M43 0V85.9993C66.7387 85.9993 85.9993 66.7636 85.9993 43C85.9993 19.2324 66.7656 0 43 0Z" fill="#4F84CF"/>
<path d="M42.9999 53.0781C30.4882 53.0781 18.5585 58.5476 9.83984 70.3737C27.2016 91.3599 59.3381 91.1808 76.4657 69.999C72.2363 65.7919 62.71 53.0781 42.9999 53.0781Z" fill="#D6F3FE"/>
<path d="M76.4658 69.999C68.3797 79.9977 56.2472 85.9993 43 85.9993V53.0781C62.7107 53.0781 72.2364 65.7932 76.4658 69.999Z" fill="#BDECFC"/>
<path d="M43 45.5195C34.6639 45.5195 27.8828 38.7378 27.8828 30.4023V25.3633C27.8828 17.0278 34.6639 10.2461 43 10.2461C51.3354 10.2461 58.1172 17.0278 58.1172 25.3633V30.4023C58.1172 38.7378 51.3354 45.5195 43 45.5195Z" fill="#D6F3FE"/>
<path d="M43 10.2461V45.5195C51.3361 45.5195 58.1172 38.7384 58.1172 30.4023V25.3633C58.1172 17.0272 51.3361 10.2461 43 10.2461Z" fill="#BDECFC"/>
</g>
<defs>
<clipPath id="clip0">
<rect width="86" height="86" fill="white"/>
</clipPath>
</defs>
</svg>
