<svg width="22" height="22" viewBox="0 0 22 22" fill="none" xmlns="http://www.w3.org/2000/svg">
<path d="M11 -9.15527e-05C4.93436 -9.15527e-05 0 4.93429 0 11C0 17.0656 4.93436 22 11 22C17.0656 22 22 17.0656 22 11C22 4.93429 17.0656 -9.15527e-05 11 -9.15527e-05ZM16.5752 8.6689L10.6168 14.6271C10.438 14.8059 10.2034 14.8959 9.96875 14.8959C9.7341 14.8959 9.49945 14.8059 9.32069 14.6271L6.34158 11.648C5.98306 11.2897 5.98306 10.7103 6.34158 10.3519C6.69994 9.99338 7.27917 9.99338 7.6377 10.3519L9.96875 12.683L15.2791 7.37278C15.6374 7.01426 16.2167 7.01426 16.5752 7.37278C16.9335 7.73113 16.9335 8.31037 16.5752 8.6689Z" fill="url(#paint0_linear)"/>
<defs>
<linearGradient id="paint0_linear" x1="11" y1="-9.15527e-05" x2="11" y2="22" gradientUnits="userSpaceOnUse">
<stop stop-color="#21B2F8"/>
<stop offset="1" stop-color="#7F6DEC"/>
<stop offset="1" stop-color="#7F6DEC"/>
</linearGradient>
</defs>
</svg>
